<svg width="139" height="145" viewBox="0 0 139 145" fill="none" xmlns="http://www.w3.org/2000/svg">
<path d="M134.356 96.9513C137.431 98.1667 138.96 101.658 137.496 104.622C132.523 114.683 125.269 123.479 116.28 130.289C105.697 138.307 93.1144 143.264 79.906 144.621C66.6976 145.977 53.3704 143.68 41.3781 137.98C29.3858 132.281 19.1891 123.397 11.9003 112.299C4.61145 101.2 0.510449 88.3132 0.0446267 75.0435C-0.421196 61.7738 2.76606 48.631 9.2587 37.0488C15.7513 25.4666 25.3 15.8898 36.8631 9.36316C46.6839 3.81991 57.6374 0.657712 68.8459 0.0921143C72.1479 -0.0745118 74.7444 2.71629 74.6381 6.02078C74.5318 9.32528 71.7613 11.8871 68.4624 12.1076C59.4495 12.7102 50.6587 15.3248 42.7482 19.7897C33.0947 25.2386 25.1229 33.2338 19.7025 42.9033C14.2821 52.5728 11.6212 63.5451 12.0101 74.6235C12.399 85.7018 15.8227 96.4605 21.9079 105.726C27.993 114.992 36.5058 122.408 46.5176 127.167C56.5295 131.925 67.6558 133.843 78.683 132.711C89.7101 131.578 100.215 127.439 109.05 120.745C116.291 115.26 122.183 108.232 126.317 100.2C127.83 97.2605 131.282 95.7359 134.356 96.9513Z" fill="url(#paint0_linear)"/>
<defs>
<linearGradient id="paint0_linear" x1="62.35" y1="-15.95" x2="145" y2="86.275" gradientUnits="userSpaceOnUse">
<stop stop-color="#ED6D15"/>
<stop offset="0.479167" stop-color="#E32B48"/>
<stop offset="1" stop-color="#E43D29" stop-opacity="0"/>
</linearGradient>
</defs>
</svg>
