<svg width="12" height="14" viewBox="0 0 12 14" fill="none" xmlns="http://www.w3.org/2000/svg">
<g clip-path="url(#clip0)">
<path d="M11.8 3.82225L10.5287 2.46774C10.2622 2.1836 9.8304 2.1836 9.56388 2.46774L4.51207 7.85228L2.43712 5.64079C2.17052 5.35668 1.73837 5.35628 1.47187 5.64034L0.200121 6.99618C-0.0664521 7.28026 -0.0668278 7.74085 0.19972 8.02496L3.71042 11.7671C4.14341 12.2285 4.84529 12.2298 5.27983 11.77C6.88515 10.071 10.4924 6.24003 11.7993 4.85226C11.9277 4.71582 12 4.53078 12 4.33772C12.0004 4.14424 11.9281 3.95919 11.8 3.82225Z" fill="#141316"/>
</g>
<defs>
<clipPath id="clip0">
<rect width="12" height="12.7895" fill="white" transform="translate(0 0.789551)"/>
</clipPath>
</defs>
</svg>
