<svg width="30" height="30" viewBox="0 0 30 30" fill="none" xmlns="http://www.w3.org/2000/svg">
<path d="M10.6178 8.32972L13.0534 3.25904L14.1658 0.942945L13.9865 0.568927C13.82 0.221324 13.4685 0 13.0827 0H5.9869C5.64216 0 5.32201 0.177279 5.13784 0.469063C4.95477 0.760847 4.93421 1.1262 5.08306 1.43653L9.50636 10.6456L10.6178 8.32972Z" fill="white" fill-opacity="0.35"/>
<path d="M24.8622 0.469063C24.6781 0.177279 24.3579 0 24.0131 0H16.9183C16.5326 0 16.1809 0.221324 16.0145 0.568927L10.5355 11.9775C10.5315 11.9863 10.5305 11.9951 10.5266 12.0039C10.5178 12.0235 10.5138 12.0451 10.506 12.0657C10.4708 12.1608 10.4503 12.2616 10.4454 12.3682C10.4443 12.383 10.4365 12.3957 10.4365 12.4115V12.9284C11.7987 12.2155 13.345 11.8061 14.9862 11.8061C16.6285 11.8061 18.1738 12.2155 19.5369 12.9295V12.6396L24.917 1.43665C25.0659 1.1262 25.0453 0.760908 24.8622 0.469063Z" fill="white" fill-opacity="0.35"/>
<path d="M14.9865 13.3101C10.3771 13.3101 6.64111 17.046 6.64111 21.6554C6.64111 26.2638 10.3771 29.9997 14.9865 29.9997C19.595 29.9997 23.331 26.2638 23.331 21.6554C23.3311 17.046 19.595 13.3101 14.9865 13.3101ZM19.9467 20.1983L17.7188 22.3713C17.6492 22.4397 17.6168 22.5377 17.6336 22.6337L18.1595 25.7018C18.178 25.8124 18.132 25.925 18.0409 25.9916C17.9499 26.0582 17.8285 26.0661 17.7295 26.0141L14.9739 24.566C14.8878 24.5207 14.7839 24.5207 14.6977 24.566L11.9421 26.0141C11.8431 26.0661 11.7217 26.0582 11.6307 25.9916C11.5396 25.925 11.4936 25.8123 11.5123 25.7018L12.0382 22.6337C12.0547 22.5378 12.0224 22.4397 11.9529 22.3713L9.72507 20.1983C9.64387 20.1189 9.61544 20.0014 9.64967 19.8947C9.68505 19.7868 9.77802 19.7086 9.88868 19.6929L12.9704 19.2453C13.0664 19.2316 13.1497 19.171 13.1927 19.0828L14.5706 16.2919C14.6206 16.191 14.7235 16.1263 14.836 16.1263C14.9486 16.1263 15.0513 16.191 15.1013 16.2919L16.4792 19.0828C16.5222 19.171 16.6054 19.2316 16.7016 19.2453L19.7833 19.6929C19.8939 19.7086 19.987 19.7868 20.0223 19.8947C20.0563 20.0014 20.0278 20.1189 19.9467 20.1983Z" fill="white" fill-opacity="0.35"/>
</svg>
