<svg width="30" height="30" viewBox="0 0 30 30" fill="none" xmlns="http://www.w3.org/2000/svg">
<path d="M24.4755 21.2549C23.0073 21.2549 21.813 22.4508 21.813 23.9214C21.813 25.3925 23.0073 26.5892 24.4755 26.5892C25.9443 26.5892 27.1384 25.3925 27.1384 23.9214C27.1384 22.4508 25.9443 21.2549 24.4755 21.2549Z" fill="white" fill-opacity="0.35"/>
<path d="M6.52163 21.2549C5.05274 21.2549 3.8584 22.4508 3.8584 23.9214C3.8584 25.3925 5.05274 26.5892 6.52163 26.5892C7.98971 26.5892 9.18405 25.3925 9.18405 23.9214C9.18415 22.4508 7.98981 21.2549 6.52163 21.2549Z" fill="white" fill-opacity="0.35"/>
<path d="M25.978 10.0527C25.8374 9.62932 25.4413 9.34326 24.9949 9.34326H23.7363V13.7703H27.2095L25.978 10.0527Z" fill="white" fill-opacity="0.35"/>
<path d="M29.3141 15.4272H23.7363V19.6624C23.9766 19.6212 24.2237 19.5981 24.4755 19.5981C26.7011 19.5981 28.5387 21.292 28.77 23.4592H28.9649C29.5363 23.4592 30 22.9955 30 22.4234V16.4009C30 15.9515 29.7135 15.5709 29.3141 15.4272Z" fill="white" fill-opacity="0.35"/>
<path d="M22.0403 4.4464C22.0403 3.87428 21.5767 3.41064 21.0051 3.41064H1.03505C0.463636 3.41064 0 3.87418 0 4.4464V22.4235C0 22.9956 0.463636 23.4592 1.03505 23.4592H2.22697C2.45838 21.2921 4.29586 19.5981 6.52182 19.5981C8.74697 19.5981 10.5841 21.2921 10.8156 23.4592H18.9898H20.1817C20.3211 22.1544 21.0424 21.0226 22.0803 20.3271L22.0403 4.4464Z" fill="white" fill-opacity="0.35"/>
</svg>
