<svg width="234" height="45" viewBox="0 0 234 45" fill="none" xmlns="http://www.w3.org/2000/svg">
<g clip-path="url(#clip0)">
<path d="M222.931 13.0676V20.1607H224.44L229.299 13.0676H235.382L228.746 22.3199L235.936 31.9327H229.698L224.44 24.5376H222.931V31.9327H217.901V13.0676H222.931ZM205.877 17.1932V20.6386H213.927V24.1347H205.877V27.8072H214.631V31.9327H200.847V13.0676H214.455V17.1932H205.877ZM194.156 17.4445V31.9327H189.126V17.4445H184.297V13.0676H199.237V17.4445H194.156ZM163.948 17.4693L164.451 31.9327H159.42V13.0676H167.389L170.99 24.9146H171.167L174.587 13.0676H182.762V31.9327H177.732L178.234 17.4693H178.058L173.279 31.9327H168.928L164.098 17.4693H163.948ZM148.323 27.7069C149.287 27.7069 150.009 27.6396 150.491 27.5057C150.968 27.3759 151.321 27.0904 151.543 26.6503C151.765 26.2143 151.874 25.5311 151.874 24.6131V20.3619C151.874 19.6534 151.811 19.1005 151.685 18.6976C151.564 18.2911 151.363 17.9896 151.094 17.7879C150.822 17.5867 150.474 17.4528 150.046 17.3897C149.619 17.3271 149.044 17.293 148.323 17.293C147.372 17.293 146.659 17.3602 146.185 17.4905C145.716 17.6203 145.372 17.9012 145.15 18.333C144.928 18.7607 144.806 19.4398 144.781 20.3619V24.6131C144.806 25.5394 144.928 26.2231 145.146 26.6585C145.364 27.0904 145.712 27.3759 146.185 27.5057C146.659 27.6396 147.372 27.7069 148.323 27.7069ZM148.323 32.0832C146.927 32.0832 145.716 31.987 144.684 31.7941C143.653 31.6012 142.756 31.2573 141.993 30.7587C141.234 30.2638 140.644 29.5553 140.224 28.6414C139.809 27.7275 139.6 26.5665 139.6 25.1665V19.8339C139.6 18.4333 139.809 17.2723 140.228 16.3502C140.647 15.4322 141.238 14.7278 141.997 14.2328C142.756 13.7384 143.653 13.3991 144.684 13.2062C145.716 13.0133 146.927 12.9166 148.323 12.9166C149.723 12.9166 150.939 13.0133 151.975 13.2062C153.01 13.3991 153.903 13.7384 154.666 14.2328C155.425 14.7278 156.012 15.4322 156.431 16.3502C156.846 17.2723 157.055 18.4333 157.055 19.8339V25.1665C157.055 26.5665 156.846 27.7275 156.431 28.6414C156.016 29.5553 155.429 30.2638 154.666 30.7587C153.907 31.2573 153.01 31.6012 151.975 31.7941C150.939 31.987 149.723 32.0832 148.323 32.0832ZM127.375 22.7264H130.821C131.505 22.7264 131.995 22.6633 132.296 22.5418C132.599 22.4203 132.804 22.1731 132.917 21.7997C133.03 21.4309 133.085 20.8232 133.085 19.9807C133.085 19.3012 133.03 18.7855 132.917 18.4292C132.808 18.0775 132.594 17.8215 132.276 17.6705C131.953 17.5195 131.471 17.4445 130.821 17.4445H127.375V22.7264ZM127.375 31.9327H122.344V13.0676H131.827C133.014 13.0676 134.011 13.1974 134.829 13.4617C135.647 13.7219 136.305 14.1242 136.808 14.6693C137.311 15.2139 137.679 15.9266 137.914 16.8027C138.149 17.6834 138.266 18.7395 138.266 19.9807C138.266 21.3642 138.174 22.5041 137.985 23.3972C137.797 24.2945 137.47 25.0113 137.008 25.5476C136.548 26.0886 135.902 26.4827 135.068 26.7299C134.229 26.9776 133.152 27.1028 131.827 27.1028H127.375V31.9327ZM119.297 13.0676V31.9327H114.267V17.4445H107.701V31.9327H102.67V13.0676H119.297ZM99.4722 13.0676V31.9327H94.4417V24.5376H87.8766V31.9327H82.846V13.0676H87.8766V20.1607H94.4417V13.0676H99.4722ZM62.1201 13.0676H66.8988V25.4892H67.0752L72.9607 13.0676H79.5764V31.9327H74.7972V19.5106H74.625L68.9619 31.9327H62.1201V13.0676Z" fill="white"/>
</g>
<path d="M44.5314 35.4515L33.1502 40.8676V31.3098M44.5314 35.4515L33.1502 31.3098M44.5314 35.4515V26.9557M33.1502 31.3098L44.5314 26.9557M33.1502 31.3098V22.7609M44.5314 26.9557L33.1502 22.7609M44.5314 26.9557V18.5661M33.1502 22.7609L44.5314 18.5661M33.1502 22.7609V14.3182M44.5314 18.5661L33.1502 14.3182M44.5314 18.5661V10.0172M33.1502 14.3182L44.5314 10.0172M33.1502 14.3182L33.0695 5.7693M44.5314 10.0172L33.0695 5.7693M44.5314 10.0172V1.52139L33.0695 5.7693M21.9305 35.4515L10.5493 40.8676V31.3098M21.9305 35.4515L10.5493 31.3098M21.9305 35.4515V26.9557M10.5493 31.3098L21.9305 26.9557M10.5493 31.3098V22.7609M21.9305 26.9557L10.5493 22.7609M21.9305 26.9557V18.5661M10.5493 22.7609L21.9305 18.5661M10.5493 22.7609V14.3182M21.9305 18.5661L10.5493 14.3182M21.9305 18.5661V10.0172M10.5493 14.3182L21.9305 10.0172M10.5493 14.3182V5.7693M21.9305 10.0172L10.5493 5.7693M21.9305 10.0172V1.52139L10.5493 5.7693M21.8498 26.9557L33.2309 22.6016M21.8498 26.9557V35.4515M21.8498 26.9557V18.4068M33.2309 22.6016L21.8498 18.4068M33.2309 22.6016V14.212L21.8498 18.4068M33.2309 22.6016V31.0974M21.8498 18.4068V10.0703" stroke="url(#paint0_linear)" stroke-width="2" stroke-linejoin="bevel"/>
<ellipse rx="1.75" ry="1.54737" transform="matrix(-1 0 0 1 33.25 31.6105)" fill="black"/>
<ellipse rx="1.75" ry="1.54737" transform="matrix(-1 0 0 1 44.75 27.1895)" fill="black"/>
<ellipse rx="1.75" ry="1.54737" transform="matrix(-1 0 0 1 44.75 35.1474)" fill="black"/>
<ellipse rx="1.75" ry="1.54737" transform="matrix(-1 0 0 1 10.75 22.7684)" fill="black"/>
<ellipse rx="1.75" ry="1.54737" transform="matrix(-1 0 0 1 33.25 22.7684)" fill="black"/>
<ellipse rx="1.75" ry="1.54737" transform="matrix(-1 0 0 1 44.75 18.3474)" fill="black"/>
<ellipse rx="1.75" ry="1.54737" transform="matrix(-1 0 0 1 21.75 9.50528)" fill="black"/>
<ellipse rx="1.75" ry="1.54737" transform="matrix(-1 0 0 1 10.75 5.96842)" fill="black"/>
<ellipse rx="1.75" ry="1.54737" transform="matrix(-1 0 0 1 21.75 1.54737)" fill="black"/>
<ellipse rx="1.75" ry="1.54737" transform="matrix(-1 0 0 1 44.75 9.50528)" fill="black"/>
<ellipse rx="1.75" ry="1.54737" transform="matrix(-1 0 0 1 33.25 5.96842)" fill="black"/>
<ellipse rx="1.75" ry="1.54737" transform="matrix(-1 0 0 1 44.75 1.54737)" fill="black"/>
<ellipse rx="1.75" ry="1.54737" transform="matrix(-1 0 0 1 21.75 27.1895)" fill="black"/>
<ellipse rx="1.75" ry="1.54737" transform="matrix(-1 0 0 1 33.75 40.4526)" fill="black"/>
<ellipse rx="1.75" ry="1.54737" transform="matrix(-1 0 0 1 10.75 31.6105)" fill="black"/>
<ellipse rx="1.75" ry="1.54737" transform="matrix(-1 0 0 1 10.75 40.4526)" fill="black"/>
<ellipse rx="1.75" ry="1.54737" transform="matrix(-1 0 0 1 21.75 35.1474)" fill="black"/>
<ellipse rx="1.75" ry="1.54737" transform="matrix(-1 0 0 1 21.75 18.3474)" fill="black"/>
<ellipse rx="1.75" ry="1.54737" transform="matrix(-1 0 0 1 33.25 14.8105)" fill="black"/>
<ellipse rx="1.75" ry="1.54737" transform="matrix(-1 0 0 1 10.75 13.9263)" fill="black"/>
<defs>
<linearGradient id="paint0_linear" x1="27.5404" y1="1.52139" x2="27.5404" y2="40.8676" gradientUnits="userSpaceOnUse">
<stop stop-color="#E33A29"/>
<stop offset="1" stop-color="#ED6F14"/>
</linearGradient>
<clipPath id="clip0">
<rect width="233.935" height="45" fill="white"/>
</clipPath>
</defs>
</svg>
