<svg width="24" height="24" viewBox="0 0 24 24" fill="none" xmlns="http://www.w3.org/2000/svg">
<circle cx="12" cy="12" r="12" fill="#E43E28"/>
<g clip-path="url(#clip0)">
<path d="M17.8 8.84536L16.5287 7.57446C16.2622 7.30786 15.8304 7.30786 15.5639 7.57446L10.5121 12.6266L8.43712 10.5516C8.17052 10.2851 7.73837 10.2847 7.47187 10.5512L6.20012 11.8234C5.93355 12.0899 5.93317 12.5221 6.19972 12.7886L9.71042 16.2998C10.1434 16.7327 10.8453 16.7339 11.2798 16.3025C12.8851 14.7084 16.4924 11.1139 17.7993 9.81179C17.9277 9.68377 18 9.51015 18 9.32901C18.0004 9.14747 17.9281 8.97385 17.8 8.84536Z" fill="#141316"/>
</g>
<defs>
<clipPath id="clip0">
<rect width="12" height="12" fill="white" transform="translate(6 6)"/>
</clipPath>
</defs>
</svg>
