<svg width="75" height="15" viewBox="0 0 75 15" fill="none" xmlns="http://www.w3.org/2000/svg">
<path fill-rule="evenodd" clip-rule="evenodd" d="M49.3512 8.04808C49.3956 8.33913 49.4178 8.56301 49.4843 8.7869C49.9725 10.869 51.5925 12.2571 53.7006 12.4362C55.5646 12.593 57.0292 11.8765 58.1165 10.3317C58.6491 9.59289 59.5145 9.45856 60.2024 10.0631C60.6019 10.3989 60.6463 10.8467 60.3356 11.272C60.1581 11.4959 60.0027 11.7198 59.8252 11.9661C59.1151 12.9512 58.1831 13.6228 57.0292 14.0258C55.1652 14.6751 53.3011 14.7647 51.4593 14.0706C48.9739 13.1527 47.5094 11.3168 47.0877 8.69735C46.8436 7.08537 46.999 5.47339 47.7313 4.01813C48.7964 1.93599 50.4607 0.659838 52.7686 0.279232C54.2997 0.032957 55.8087 0.189677 57.2289 0.883724C59.2482 1.84643 60.4687 3.4808 60.9347 5.6525C61.0679 6.25699 61.1123 6.86148 61.1567 7.46597C61.201 7.84658 61.0235 8.0033 60.6463 8.02569C60.4687 8.02569 60.3134 8.02569 60.1359 8.02569C56.6963 8.02569 53.2568 8.02569 49.8394 8.02569C49.684 8.04808 49.5731 8.04808 49.3512 8.04808ZM58.7379 5.76444C58.4494 3.81663 56.1194 2.1151 53.9669 2.24943C51.7256 2.38376 49.5065 4.10768 49.4178 5.76444C52.5023 5.76444 55.6312 5.76444 58.7379 5.76444Z" fill="white" fill-opacity="0.3"/>
<path fill-rule="evenodd" clip-rule="evenodd" d="M31.7322 7.98154C31.7543 8.18304 31.7765 8.31738 31.7987 8.4741C32.2203 10.7801 34.0844 12.3698 36.3922 12.4145C38.1452 12.4369 39.4989 11.7205 40.5196 10.2876C41.0522 9.52637 42.0064 9.43682 42.6721 10.1085C42.9828 10.4443 43.0494 10.8473 42.7387 11.2503C42.6055 11.4518 42.4724 11.6309 42.3171 11.7876C41.5626 12.9071 40.5196 13.6235 39.2548 14.0489C37.3908 14.6758 35.5267 14.7206 33.7293 14.0041C31.1552 12.9966 29.7128 11.004 29.4021 8.22782C29.2468 6.88449 29.38 5.58594 29.9347 4.35455C31.0221 2.02612 32.7751 0.593231 35.327 0.257399C36.6807 0.0782885 38.0343 0.190233 39.277 0.705176C41.5404 1.64551 42.8496 3.41422 43.36 5.80983C43.4488 6.34716 43.5154 6.92927 43.5375 7.4666C43.5597 7.91438 43.471 8.00393 43.005 8.00393C42.2061 8.00393 41.3629 8.00393 40.5418 8.00393C37.7902 8.00393 35.0386 8.00393 32.3313 8.00393C32.1316 7.98154 31.9541 7.98154 31.7322 7.98154ZM41.1632 5.69788C40.8747 3.77244 38.6112 2.13806 36.3922 2.18284C34.2397 2.22762 31.9984 3.97394 31.8209 5.69788C34.9276 5.69788 38.0121 5.69788 41.1632 5.69788Z" fill="white" fill-opacity="0.3"/>
<path fill-rule="evenodd" clip-rule="evenodd" d="M70.3438 9.01074C70.5213 9.16746 70.6101 9.25702 70.721 9.34657C71.9193 10.3765 73.1176 11.4064 74.2937 12.4363C74.3603 12.5034 74.4712 12.593 74.5378 12.6602C74.9816 13.1079 75.026 13.7572 74.6044 14.205C74.205 14.6528 73.5836 14.72 73.1176 14.3393C72.2744 13.6453 71.4755 12.9288 70.6545 12.2348C69.4784 11.2273 68.3244 10.2197 67.1483 9.21224C67.0596 9.12268 66.9264 9.03313 66.7489 8.89879C66.7489 9.14507 66.7267 9.3018 66.7267 9.45852C66.7267 12.3019 66.7267 10.175 66.7267 13.0184C66.7267 13.1527 66.7267 13.2871 66.7267 13.4214C66.6823 14.0483 66.2163 14.4961 65.595 14.4513C64.9958 14.4289 64.5964 13.9811 64.5742 13.3542C64.5742 13.2199 64.5742 13.0856 64.5742 12.9512C64.5742 7.33156 64.5742 6.68227 64.5742 1.06261C64.5742 0.8835 64.5742 0.726776 64.5742 0.547663C64.5742 0.14466 64.6186 0.0774924 64.9958 0.0774924C65.5062 0.0551034 66.0166 0.0551034 66.527 0.0551034C67.7475 0.0551034 69.0123 0.0998815 70.2328 0.0327143C72.2966 -0.0568421 74.6044 1.62234 74.8263 4.06275C75.026 6.25688 73.5392 8.33906 71.3202 8.78685C71.0317 8.85401 70.721 8.94357 70.3438 9.01074ZM66.5936 7.28678C66.7267 7.30917 66.8155 7.30917 66.882 7.30917C67.9028 7.30917 68.9458 7.30917 69.9665 7.30917C70.255 7.30917 70.5657 7.28678 70.8542 7.17483C71.8084 6.88377 72.5629 6.30166 72.807 5.27176C73.2286 3.50302 71.9193 1.89101 70.1219 1.89101C69.0567 1.89101 68.0138 1.89101 66.9264 1.89101C66.7933 1.89101 66.6823 1.9134 66.5492 1.9134C66.5936 3.70452 66.5936 5.47326 66.5936 7.28678Z" fill="white" fill-opacity="0.3"/>
<path fill-rule="evenodd" clip-rule="evenodd" d="M23.7434 8.00276C21.7019 8.00276 19.7269 8.00276 17.7076 8.00276C17.7076 8.18186 17.6854 8.33858 17.6854 8.4953C17.6854 10.0625 17.6854 11.6072 17.6854 13.1744C17.6854 13.3759 17.6854 13.5774 17.641 13.7341C17.4857 14.2043 16.9975 14.4953 16.5315 14.4729C16.0211 14.4281 15.5995 14.0252 15.5329 13.5102C15.5107 13.3759 15.5329 13.264 15.5329 13.1296C15.5329 7.555 15.5107 6.88336 15.5107 1.33111C15.5107 1.10723 15.5329 0.883349 15.5995 0.681856C15.777 0.211706 16.2652 -0.0569511 16.7756 0.0102132C17.2416 0.0773774 17.641 0.480363 17.6854 0.972901C17.7076 1.12962 17.6854 1.26395 17.6854 1.42066C17.6854 4.28634 17.7076 2.24902 17.7076 5.1147C17.7076 5.2938 17.7298 5.45052 17.7298 5.60723C18.107 5.69679 23.344 5.69679 23.7434 5.60723C23.7434 5.47291 23.7656 5.33858 23.7656 5.18186C23.7656 3.92813 23.7656 2.65201 23.7656 1.39827C23.7656 1.26395 23.7656 1.15201 23.7656 1.01768C23.81 0.457975 24.2316 0.0326013 24.7864 0.0102132C25.3412 -0.0121749 25.8515 0.413199 25.9181 0.972901C25.9403 1.10723 25.9181 1.21917 25.9181 1.3535C25.9181 5.27141 25.9181 9.16694 25.9181 13.0849C25.9181 13.2192 25.9181 13.3311 25.9181 13.4655C25.8515 14.0252 25.3634 14.4729 24.8086 14.4505C24.2538 14.4281 23.81 13.9804 23.7434 13.4207C23.7434 13.2863 23.7434 13.1744 23.7434 13.0401C23.7434 11.5401 23.7434 9.9953 23.7434 8.4953C23.7434 8.36097 23.7434 8.20425 23.7434 8.00276Z" fill="white" fill-opacity="0.3"/>
<path fill-rule="evenodd" clip-rule="evenodd" d="M6.07954 14.563C4.63715 14.5406 3.28352 14.2272 2.04084 13.4659C1.50826 13.1525 1.02007 12.7495 0.620639 12.2793C0.420923 12.033 0.176826 11.7867 0.088063 11.4733C-0.0450809 11.0703 -0.0672716 10.6225 0.309969 10.2643C0.731592 9.86129 1.30855 9.70457 1.88551 10.0852C2.44027 10.4882 2.70656 11.0031 3.17256 11.4733C3.83828 12.145 4.70372 12.5032 5.63573 12.6151C6.50116 12.7047 7.34441 12.6823 8.18765 12.3913C8.52051 12.2569 8.87556 12.1002 9.16404 11.8763C9.69662 11.2718 9.85195 10.421 9.20842 9.8389C8.89775 9.57023 8.49832 9.36873 8.09889 9.18962C7.1225 8.76423 6.10173 8.47317 5.08096 8.2045C4.23771 8.003 3.43885 7.73433 2.59561 7.48805C2.28494 7.39849 1.97427 7.21938 1.68579 7.06266C0.909117 6.63727 0.465304 5.9656 0.33216 5.11481C0.088063 3.34608 0.731592 1.75646 2.26275 0.972839C4.65934 -0.21378 7.14469 -0.101835 9.54128 1.2639C9.98509 1.51018 10.4067 1.89079 10.784 2.22663C11.0724 2.4729 11.2943 2.83113 11.4053 3.21174C11.5162 3.68191 11.2943 4.17447 10.7174 4.30881C10.2292 4.42075 9.78538 4.26403 9.43033 3.88342C9.36376 3.81625 9.29718 3.72669 9.2528 3.65952C8.69804 2.80874 7.87698 2.33857 6.90059 2.15946C5.9242 1.98035 4.94782 2.00274 4.01581 2.38335C3.68295 2.51768 3.3279 2.6968 3.06161 2.94307C2.66218 3.48041 2.50684 4.19686 3.03942 4.86853C3.46104 5.27154 3.94924 5.49543 4.48181 5.60737C5.65792 5.89843 6.85621 6.21188 8.03232 6.50293C8.7868 6.70443 9.51909 6.95071 10.207 7.35372C11.0946 7.82389 11.7382 8.51795 11.9601 9.52545C12.2263 10.7569 11.9601 11.9211 11.0059 12.8166C9.91852 13.8018 8.67585 14.3391 7.23345 14.4958C6.83402 14.5406 6.43459 14.5406 6.07954 14.563Z" fill="white" fill-opacity="0.3"/>
</svg>
