<svg width="30" height="30" viewBox="0 0 30 30" fill="none" xmlns="http://www.w3.org/2000/svg">
<path d="M28.0287 4.19863C27.9748 3.81183 27.6965 3.49366 27.3203 3.38908L15.2628 0.0358824C15.0909 -0.0119608 14.9093 -0.0119608 14.7373 0.0358824L2.67978 3.38908C2.30357 3.49366 2.02527 3.8117 1.97142 4.19863C1.90148 4.7015 0.306057 16.5833 4.39821 22.4942C8.48553 28.398 14.5152 29.9109 14.7698 29.9725C14.8455 29.9908 14.9227 29.9998 15 29.9998C15.0774 29.9998 15.1546 29.9907 15.2302 29.9725C15.485 29.9109 21.5147 28.398 25.6019 22.4942C29.694 16.5835 28.0986 4.70163 28.0287 4.19863ZM22.7756 11.1354L14.5512 19.3598C14.3598 19.5512 14.1088 19.647 13.858 19.647C13.6071 19.647 13.3561 19.5513 13.1648 19.3598L8.07965 14.2747C7.89573 14.0909 7.79246 13.8415 7.79246 13.5815C7.79246 13.3215 7.89586 13.0721 8.07965 12.8883L9.08932 11.8786C9.4722 11.4959 10.093 11.4958 10.4757 11.8786L13.858 15.2608L20.3795 8.73915C20.5633 8.55523 20.8127 8.45196 21.0727 8.45196C21.3327 8.45196 21.5821 8.55523 21.7659 8.73915L22.7756 9.74882C23.1585 10.1317 23.1585 10.7525 22.7756 11.1354Z" fill="white" fill-opacity="0.35"/>
</svg>
