<svg width="21" height="27" viewBox="0 0 21 27" fill="none" xmlns="http://www.w3.org/2000/svg">
<path d="M6.65399 0.285613C6.25009 0.102296 5.79735 0.0507972 5.37116 0.139686L5.33994 0.130284C4.35159 0.332871 3.41113 0.681883 2.55351 1.16431C1.83686 1.57833 1.36649 2.07397 1.11985 2.61308C0.97281 2.93443 0.90311 3.27907 0.915287 3.63195L0.947357 3.66548C1.06095 5.50245 1.38089 7.33288 1.90579 9.12356C2.52934 11.6049 3.49036 14.0155 4.76495 16.2956L4.79707 16.3828L4.86453 16.4658L4.90079 16.5393L4.94837 16.6075C6.34548 18.8376 8.03391 20.9053 9.97331 22.7599C12.1961 24.8588 13.5978 25.9569 14.4735 26.5011L14.4694 26.5147C14.7255 26.677 14.9691 26.789 15.225 26.8661C16.0539 27.0558 16.9144 26.984 17.669 26.6618C18.5847 26.2818 19.4207 25.7617 20.1439 25.1221L20.1481 25.1083C20.8426 24.4549 20.9134 23.6598 20.407 22.9552C19.4069 21.4968 18.2641 20.1249 16.9936 18.8578C16.1316 18.0462 15.0089 18.0424 14.4366 18.4298L13.2348 19.1945C12.6236 19.5702 11.8152 19.2493 11.8152 19.2493L11.7872 19.2559C6.03705 15.9383 6.12187 9.67651 6.12187 9.67651C6.12187 9.67651 6.28055 8.86923 6.97343 8.642L8.33761 8.1513C8.9918 7.9125 9.64868 7.07753 9.35745 5.97057C8.90225 4.31156 8.27543 2.69078 7.48603 1.13157C7.3197 0.769925 7.02421 0.469 6.65184 0.281988L6.65399 0.285613Z" fill="#C4C4C4" fill-opacity="0.1"/>
</svg>
