<svg width="40" height="35" viewBox="0 0 40 35" fill="none" xmlns="http://www.w3.org/2000/svg">
<circle cx="16" cy="16" r="16" fill="#C4C4C4" fill-opacity="0.1"/>
<circle cx="28" cy="23" r="12" fill="#E43E28"/>
<g clip-path="url(#clip0)">
<path d="M33.8 19.8454L32.5287 18.5745C32.2622 18.3079 31.8304 18.3079 31.5639 18.5745L26.5121 23.6266L24.4371 21.5516C24.1705 21.2851 23.7384 21.2847 23.4719 21.5512L22.2001 22.8234C21.9335 23.0899 21.9332 23.5221 22.1997 23.7886L25.7104 27.2998C26.1434 27.7327 26.8453 27.7339 27.2798 27.3025C28.8851 25.7084 32.4924 22.1139 33.7993 20.8118C33.9277 20.6838 34 20.5101 34 20.329C34.0004 20.1475 33.9281 19.9738 33.8 19.8454Z" fill="#141316"/>
</g>
<defs>
<clipPath id="clip0">
<rect width="12" height="12" fill="white" transform="translate(22 17)"/>
</clipPath>
</defs>
</svg>
