<svg width="38" height="35" viewBox="0 0 38 35" fill="none" xmlns="http://www.w3.org/2000/svg">
<path d="M8.29116 31.2225C11.4181 33.405 15.2557 34.7412 19.425 34.7412C29.6113 34.7412 37.9025 26.9912 37.9025 17.3706C37.9025 7.7945 29.6587 0 19.425 0C9.19135 0 0.947562 7.74996 0.947562 17.3706C0.947562 20.1766 1.65823 22.8045 2.89006 25.1206L0 32.9151L8.29116 31.2225ZM10.4232 11.135H28.4268C28.948 11.135 29.3744 11.5359 29.3744 12.0258C29.3744 12.5157 28.948 12.9166 28.4268 12.9166H10.4232C9.90202 12.9166 9.47562 12.5157 9.47562 12.0258C9.47562 11.5359 9.90202 11.135 10.4232 11.135ZM10.4232 16.4798H28.4268C28.948 16.4798 29.3744 16.8807 29.3744 17.3706C29.3744 17.8605 28.948 18.2614 28.4268 18.2614H10.4232C9.90202 18.2614 9.47562 17.8605 9.47562 17.3706C9.47562 16.8807 9.90202 16.4798 10.4232 16.4798ZM10.4232 21.8246H28.4268C28.948 21.8246 29.3744 22.2255 29.3744 22.7154C29.3744 23.2053 28.948 23.6062 28.4268 23.6062H10.4232C9.90202 23.6062 9.47562 23.2053 9.47562 22.7154C9.47562 22.2255 9.90202 21.8246 10.4232 21.8246Z" fill="white" fill-opacity="0.35"/>
</svg>
