<svg width="21" height="46" viewBox="0 0 21 46" fill="none" xmlns="http://www.w3.org/2000/svg">
<path d="M3.1867 1.08254C2.68001 0.427141 1.73794 0.306597 1.08254 0.813296C0.427141 1.31999 0.306597 2.26206 0.813296 2.91746L3.1867 1.08254ZM18.1538 22.8945L19.345 23.8062L20.0463 22.8899L19.3405 21.977L18.1538 22.8945ZM0.808854 43.0883C0.305344 43.7462 0.430463 44.6876 1.08831 45.1911C1.74617 45.6947 2.68764 45.5695 3.19115 44.9117L0.808854 43.0883ZM1.11244 3.30439C1.61914 3.95979 2.56121 4.08034 3.21661 3.57364C3.872 3.06694 3.99255 2.12487 3.48585 1.46947L1.11244 3.30439ZM8.27217 7.66043C7.76548 7.00503 6.82341 6.88449 6.16801 7.39119C5.51261 7.89788 5.39207 8.83995 5.89877 9.49535L8.27217 7.66043ZM6.49706 10.2692C7.00376 10.9246 7.94582 11.0452 8.60122 10.5385C9.25662 10.0318 9.37716 9.0897 8.87046 8.4343L6.49706 10.2692ZM13.6568 14.6253C13.1501 13.9699 12.208 13.8493 11.5526 14.356C10.8972 14.8627 10.7767 15.8048 11.2834 16.4602L13.6568 14.6253ZM11.8817 17.234C12.3884 17.8894 13.3304 18.01 13.9858 17.5033C14.6412 16.9966 14.7618 16.0545 14.2551 15.3991L11.8817 17.234ZM19.0414 21.5901C18.5347 20.9347 17.5926 20.8141 16.9372 21.3208C16.2818 21.8275 16.1613 22.7696 16.668 23.425L19.0414 21.5901ZM16.6636 22.3736C16.16 23.0315 16.2852 23.973 16.943 24.4765C17.6009 24.98 18.5423 24.8549 19.0458 24.197L16.6636 22.3736ZM14.2595 30.4505C14.763 29.7926 14.6379 28.8512 13.9801 28.3477C13.3222 27.8441 12.3807 27.9693 11.8772 28.6271L14.2595 30.4505ZM11.2789 29.4088C10.7754 30.0667 10.9005 31.0081 11.5584 31.5116C12.2163 32.0151 13.1577 31.89 13.6612 31.2322L11.2789 29.4088ZM8.87491 37.4857C9.37842 36.8278 9.2533 35.8863 8.59545 35.3828C7.93759 34.8793 6.99612 35.0044 6.49261 35.6623L8.87491 37.4857ZM5.89432 36.444C5.39081 37.1018 5.51593 38.0433 6.17378 38.5468C6.83164 39.0503 7.77311 38.9252 8.27662 38.2674L5.89432 36.444ZM3.49029 44.5208C3.9938 43.863 3.86868 42.9215 3.21083 42.418C2.55298 41.9145 1.61151 42.0396 1.108 42.6975L3.49029 44.5208ZM0.813296 2.91746L1.11244 3.30439L3.48585 1.46947L3.1867 1.08254L0.813296 2.91746ZM5.89877 9.49535L6.49706 10.2692L8.87046 8.4343L8.27217 7.66043L5.89877 9.49535ZM11.2834 16.4602L11.8817 17.234L14.2551 15.3991L13.6568 14.6253L11.2834 16.4602ZM16.668 23.425L16.9671 23.8119L19.3405 21.977L19.0414 21.5901L16.668 23.425ZM16.9627 21.9828L16.6636 22.3736L19.0458 24.197L19.345 23.8062L16.9627 21.9828ZM11.8772 28.6271L11.2789 29.4088L13.6612 31.2322L14.2595 30.4505L11.8772 28.6271ZM6.49261 35.6623L5.89432 36.444L8.27662 38.2674L8.87491 37.4857L6.49261 35.6623ZM1.108 42.6975L0.808854 43.0883L3.19115 44.9117L3.49029 44.5208L1.108 42.6975Z" fill="#AAAAAA"/>
</svg>
