<svg width="20" height="46" viewBox="0 0 20 46" fill="none" xmlns="http://www.w3.org/2000/svg">
<path d="M16.9671 1.08254C17.4738 0.427141 18.4159 0.306597 19.0713 0.813296C19.7267 1.31999 19.8472 2.26206 19.3405 2.91746L16.9671 1.08254ZM1.99996 22.8945L0.808817 23.8062L0.107508 22.8899L0.813259 21.977L1.99996 22.8945ZM19.345 43.0883C19.8485 43.7462 19.7233 44.6876 19.0655 45.1911C18.4076 45.6947 17.4662 45.5695 16.9627 44.9117L19.345 43.0883ZM19.0414 3.30439C18.5347 3.95979 17.5926 4.08034 16.9372 3.57364C16.2818 3.06694 16.1613 2.12487 16.668 1.46947L19.0414 3.30439ZM11.8816 7.66043C12.3883 7.00503 13.3304 6.88449 13.9858 7.39119C14.6412 7.89788 14.7617 8.83995 14.255 9.49535L11.8816 7.66043ZM13.6568 10.2692C13.1501 10.9246 12.208 11.0452 11.5526 10.5385C10.8972 10.0318 10.7766 9.0897 11.2833 8.4343L13.6568 10.2692ZM6.49702 14.6253C7.00372 13.9699 7.94578 13.8493 8.60118 14.356C9.25658 14.8627 9.37713 15.8048 8.87043 16.4602L6.49702 14.6253ZM8.27214 17.234C7.76544 17.8894 6.82337 18.01 6.16797 17.5033C5.51257 16.9966 5.39203 16.0545 5.89873 15.3991L8.27214 17.234ZM1.1124 21.5901C1.6191 20.9347 2.56117 20.8141 3.21657 21.3208C3.87197 21.8275 3.99251 22.7696 3.48581 23.425L1.1124 21.5901ZM3.49025 22.3736C3.99376 23.0315 3.86865 23.973 3.21079 24.4765C2.55294 24.98 1.61147 24.8549 1.10796 24.197L3.49025 22.3736ZM5.89429 30.4505C5.39078 29.7926 5.5159 28.8512 6.17375 28.3477C6.8316 27.8441 7.77307 27.9693 8.27658 28.6271L5.89429 30.4505ZM8.87487 29.4088C9.37838 30.0667 9.25326 31.0081 8.59541 31.5116C7.93756 32.0151 6.99609 31.89 6.49258 31.2322L8.87487 29.4088ZM11.2789 37.4857C10.7754 36.8278 10.9005 35.8863 11.5584 35.3828C12.2162 34.8793 13.1577 35.0044 13.6612 35.6623L11.2789 37.4857ZM14.2595 36.444C14.763 37.1018 14.6379 38.0433 13.98 38.5468C13.3222 39.0503 12.3807 38.9252 11.8772 38.2674L14.2595 36.444ZM16.6635 44.5208C16.16 43.863 16.2851 42.9215 16.943 42.418C17.6008 41.9145 18.5423 42.0396 19.0458 42.6975L16.6635 44.5208ZM19.3405 2.91746L19.0414 3.30439L16.668 1.46947L16.9671 1.08254L19.3405 2.91746ZM14.255 9.49535L13.6568 10.2692L11.2833 8.4343L11.8816 7.66043L14.255 9.49535ZM8.87043 16.4602L8.27214 17.234L5.89873 15.3991L6.49702 14.6253L8.87043 16.4602ZM3.48581 23.425L3.18667 23.8119L0.813259 21.977L1.1124 21.5901L3.48581 23.425ZM3.19111 21.9828L3.49025 22.3736L1.10796 24.197L0.808817 23.8062L3.19111 21.9828ZM8.27658 28.6271L8.87487 29.4088L6.49258 31.2322L5.89429 30.4505L8.27658 28.6271ZM13.6612 35.6623L14.2595 36.444L11.8772 38.2674L11.2789 37.4857L13.6612 35.6623ZM19.0458 42.6975L19.345 43.0883L16.9627 44.9117L16.6635 44.5208L19.0458 42.6975Z" fill="#fff"/>
</svg>
