<svg width="30" height="18" viewBox="0 0 30 18" fill="none" xmlns="http://www.w3.org/2000/svg">
<path d="M28.6957 13.855C28.0425 13.0709 27.3003 12.3682 26.5824 11.6886C26.3272 11.4469 26.0633 11.197 25.8088 10.9485C25.0785 10.2344 25.0519 9.96614 25.6302 9.15499C26.0302 8.59587 26.4544 8.03601 26.8647 7.49455C27.2368 7.00331 27.6216 6.4953 27.9903 5.98564L28.0661 5.88085C28.7709 4.90554 29.4999 3.89704 29.8879 2.68045C29.9886 2.35948 30.0944 1.88714 29.8525 1.49218C29.6108 1.09755 29.142 0.977151 28.8102 0.920917C28.6462 0.893089 28.4832 0.889291 28.332 0.889291L23.716 0.885988L23.6778 0.885657C22.9799 0.885657 22.5095 1.21456 22.24 1.89127C21.9827 2.53784 21.7 3.22636 21.3775 3.88102C20.7356 5.18465 19.9204 6.68613 18.7408 7.9384L18.6909 7.99166C18.5516 8.14137 18.3938 8.3109 18.2785 8.3109C18.2608 8.3109 18.2416 8.30751 18.2198 8.30066C17.9754 8.20545 17.8114 7.61396 17.8189 7.33882C17.8189 7.33502 17.819 7.33122 17.819 7.32742L17.8158 1.99218C17.8158 1.97368 17.8145 1.95535 17.8121 1.93702C17.6947 1.06972 17.4346 0.529836 16.4517 0.337352C16.4256 0.332149 16.399 0.32959 16.3724 0.32959H11.5726C10.7906 0.32959 10.3597 0.647425 9.95464 1.12315C9.84531 1.25031 9.61773 1.51505 9.73053 1.83619C9.84498 2.16212 10.2165 2.23181 10.3375 2.25444C10.938 2.36872 11.2764 2.73602 11.3723 3.3778C11.5397 4.49225 11.5603 5.68176 11.437 7.12131C11.4027 7.52139 11.3347 7.83039 11.2228 8.09439C11.1968 8.15599 11.1045 8.35706 11.0105 8.35714C10.9806 8.35714 10.8941 8.34542 10.7366 8.23691C10.3643 7.98183 10.0919 7.61784 9.77429 7.16821C8.69387 5.6413 7.7871 3.95922 7.0018 2.02471C6.71055 1.31258 6.16662 0.913898 5.46952 0.902172C4.70354 0.890529 4.00908 0.884914 3.34673 0.884914C2.62303 0.884914 1.9521 0.891603 1.29694 0.905228C0.736087 0.915137 0.348144 1.08326 0.144016 1.40531C-0.0604427 1.7276 -0.047148 2.15097 0.18357 2.66344C2.03047 6.76937 3.70503 9.75474 5.61336 12.3437C6.95052 14.1552 8.29172 15.4091 9.83375 16.2895C11.4584 17.2189 13.279 17.6707 15.3995 17.6707C15.6399 17.6707 15.8885 17.6649 16.1391 17.6531C17.3713 17.5931 17.8284 17.1471 17.8862 15.9474C17.9137 15.3342 17.9808 14.6912 18.2822 14.1428C18.4725 13.7973 18.6498 13.7973 18.7081 13.7973C18.8204 13.7973 18.9597 13.849 19.1092 13.9459C19.3774 14.121 19.6074 14.3555 19.7959 14.5603C19.9734 14.755 20.1488 14.9516 20.3245 15.1483C20.7035 15.5728 21.0954 16.0117 21.5048 16.428C22.4009 17.3397 23.3881 17.7407 24.522 17.6536H28.7542C28.7632 17.6536 28.7723 17.6533 28.7813 17.6527C29.203 17.6249 29.5682 17.391 29.7833 17.011C30.0498 16.5402 30.0444 15.9396 29.769 15.404C29.4564 14.7984 29.051 14.281 28.6957 13.855Z" fill="white" fill-opacity="0.35"/>
</svg>
